<svg width="14" height="14" fill="none" xmlns="http://www.w3.org/2000/svg"><path fill-rule="evenodd" clip-rule="evenodd" d="M2.494 2.188A1.839 1.839 0 014.287 0c1.007 0 1.838.831 1.838 1.837v2.276c.263 0 .525-.044.787-.044.263 0 .482 0 .744.043V1.837C7.656.831 8.488 0 9.494 0c1.137 0 2.012 1.05 1.837 2.188l-.481 2.668c1.706.744 3.019 2.056 3.019 3.675v1.006c0 1.357-.875 2.494-2.144 3.238C10.456 13.562 8.794 14 6.912 14c-1.88 0-3.543-.438-4.812-1.225C.875 12.031 0 10.894 0 9.537V8.531C0 6.912 1.269 5.6 2.975 4.856l-.481-2.668zm7.7 3.018l.568-3.15c.132-.787-.437-1.531-1.268-1.531-.7 0-1.269.569-1.269 1.269V4.68c-.175-.043-.394-.043-.569-.043-.262 0-.481-.044-.744-.044-.262 0-.524 0-.787.043-.175 0-.394.044-.569.044V1.837c0-.7-.569-1.268-1.269-1.268-.787 0-1.4.744-1.224 1.531l.568 3.15C1.794 5.95.57 7.175.57 8.575v1.006c0 2.144 2.844 3.894 6.344 3.894 3.5 0 6.343-1.75 6.343-3.894V8.575c.044-1.444-1.181-2.669-3.062-3.369z" fill="#633001"/><path d="M13.3 9.537c0 2.144-2.844 3.894-6.343 3.894-3.5 0-6.344-1.75-6.344-3.893V8.53h12.731v1.006H13.3z" fill="#FEDC90"/><path fill-rule="evenodd" clip-rule="evenodd" d="M3.063 2.1A1.264 1.264 0 014.288.569c.7 0 1.269.569 1.269 1.269v2.887a13.25 13.25 0 011.356-.087c.437 0 .875.043 1.312.087V1.838c0-.7.569-1.27 1.269-1.27.787 0 1.4.745 1.269 1.532l-.569 3.15c1.837.7 3.106 1.925 3.106 3.325 0 2.144-2.844 3.894-6.343 3.894-3.5 0-6.344-1.75-6.344-3.894 0-1.4 1.225-2.625 3.062-3.325L3.063 2.1z" fill="#D1884F"/><path d="M5.162 8.269c0 .569-.306 1.05-.7 1.05-.394 0-.7-.482-.7-1.05 0-.569.306-1.05.7-1.05.394 0 .7.481.7 1.05zm4.857 0c0 .569-.307 1.05-.7 1.05-.394 0-.7-.482-.7-1.05 0-.569.306-1.05.7-1.05.393 0 .7.481.7 1.05z" fill="#633001"/></svg>