<svg width="25" height="25" fill="none" xmlns="http://www.w3.org/2000/svg"><path fill-rule="evenodd" clip-rule="evenodd" d="M4.395 3.855C4.01 1.851 5.552 0 7.557 0a3.258 3.258 0 013.238 3.239v4.01c.463 0 .926-.078 1.388-.078.463 0 .848 0 1.311.077v-4.01A3.258 3.258 0 0116.733 0c2.005 0 3.547 1.85 3.238 3.855l-.848 4.704c3.008 1.311 5.32 3.624 5.32 6.477v1.774c0 2.39-1.541 4.395-3.778 5.706-2.236 1.388-5.166 2.16-8.482 2.16-3.315 0-6.246-.772-8.482-2.16C1.542 21.206 0 19.2 0 16.81v-1.774C0 12.183 2.236 9.87 5.243 8.56l-.848-4.704zm13.572 5.321l1.002-5.552C19.2 2.236 18.198.925 16.733.925a2.238 2.238 0 00-2.236 2.237V8.25c-.309-.077-.694-.077-1.003-.077-.463 0-.848-.077-1.31-.077-.463 0-.926 0-1.389.077-.308 0-.694.077-1.002.077V3.239a2.238 2.238 0 00-2.236-2.237c-1.388 0-2.468 1.311-2.16 2.7L6.4 9.252c-3.239 1.234-5.398 3.393-5.398 5.86v1.774c0 3.778 5.013 6.863 11.181 6.863 6.17 0 11.181-3.085 11.181-6.863v-1.774c.077-2.544-2.082-4.703-5.397-5.937z" fill="#633001"/><path d="M23.441 16.81c0 3.779-5.012 6.863-11.18 6.863-6.17 0-11.181-3.084-11.181-6.863v-1.773h22.438v1.773h-.077z" fill="#FEDC90"/><path fill-rule="evenodd" clip-rule="evenodd" d="M5.398 3.701c-.309-1.387.77-2.698 2.159-2.698a2.238 2.238 0 012.236 2.236v5.09c.771-.078 1.542-.155 2.39-.155.771 0 1.543.077 2.314.154v-5.09a2.238 2.238 0 012.236-2.235c1.388 0 2.467 1.31 2.236 2.699l-1.002 5.551c3.238 1.234 5.474 3.393 5.474 5.86 0 3.78-5.012 6.864-11.18 6.864-6.17 0-11.181-3.085-11.181-6.863 0-2.468 2.159-4.627 5.397-5.86L5.397 3.7z" fill="#D1884F"/><path d="M9.1 14.574c0 1.003-.54 1.85-1.234 1.85s-1.234-.847-1.234-1.85c0-1.002.54-1.85 1.234-1.85s1.234.848 1.234 1.85zm8.56 0c0 1.003-.54 1.85-1.234 1.85s-1.234-.847-1.234-1.85c0-1.002.54-1.85 1.234-1.85s1.234.848 1.234 1.85z" fill="#633001"/></svg>