<svg width="35" height="35" fill="none" xmlns="http://www.w3.org/2000/svg"><path d="M18.667 14.58v1.167L16.404 29.74a.278.278 0 01-.07.006H3.5A2.916 2.916 0 01.584 26.83V14.58A2.917 2.917 0 013.5 11.664h12.25a2.917 2.917 0 012.917 2.916z" fill="#AA6F41"/><path d="M16.917 14.58v1.167L14.654 29.74a.279.279 0 01-.07.006H3.5A2.916 2.916 0 01.584 26.83V14.58A2.917 2.917 0 013.5 11.664H14a2.917 2.917 0 012.917 2.916z" fill="#D1884F"/><path d="M32.498 30.045l-11.51 4.194a2.917 2.917 0 01-3.739-1.744l-4.194-11.51a2.92 2.92 0 011.744-3.738l11.515-4.195a.916.916 0 01.123-.035 2.905 2.905 0 013.61 1.78l4.195 11.514a2.917 2.917 0 01-1.744 3.734z" fill="#C8AC6E"/><path d="M30.748 30.045l-11.51 4.194c-.04.012-.081.029-.122.04a2.91 2.91 0 01-1.867-1.784l-4.194-11.51a2.92 2.92 0 011.744-3.739l11.515-4.194a.931.931 0 01.123-.035 2.892 2.892 0 011.86 1.78l4.195 11.514a2.917 2.917 0 01-1.744 3.734z" fill="#FEDC90"/><path d="M7 16.914a1.167 1.167 0 11-2.333 0 1.167 1.167 0 012.334 0zm20.42 1.75a1.167 1.167 0 11-2.334 0 1.167 1.167 0 012.334 0zm-5.252 9.917a1.167 1.167 0 11-2.333 0 1.167 1.167 0 012.333 0zM7.001 24.497a1.167 1.167 0 11-2.333 0 1.167 1.167 0 012.333 0zm7.485-7.11a1.167 1.167 0 10-.876.676l.876-.676zm-.525 6.078a1.167 1.167 0 10.537 1.476l-.537-1.476z" fill="#CFD8DC"/><path d="M15.75 30.331c.021 0 .052 0 .088-.003l.862 2.366a3.5 3.5 0 004.485 2.092l11.511-4.19a3.5 3.5 0 002.093-4.487l-4.19-11.51a3.5 3.5 0 00-4.486-2.092l-4.092 1.49L18.06.417a.583.583 0 00-1.027-.183L9.041 11.081H3.5a3.503 3.503 0 00-3.5 3.5v12.25a3.504 3.504 0 003.5 3.5h12.25zm10.762-16.728c1.21-.44 2.55.183 2.99 1.394l4.19 11.512a2.333 2.333 0 01-1.394 2.99l-11.512 4.19a2.333 2.333 0 01-2.99-1.394l-4.19-11.512A2.337 2.337 0 0115 17.793l11.512-4.19zm-13.678 3.31a.583.583 0 011.166 0 .545.545 0 01-.017.08c-.23.141-.444.309-.636.5a.588.588 0 01-.513-.58zm.674 7.012l.347.952a.583.583 0 11-.347-.952zm3.762-22.05l3.652 12.519-1.672.61v-.423a3.504 3.504 0 00-3.5-3.5h-5.262l6.782-9.207zM1.167 26.83V14.58A2.333 2.333 0 013.5 12.247h12.25a2.333 2.333 0 012.334 2.334v.848l-2.97 1.08a1.75 1.75 0 10-2.47 1.967 3.49 3.49 0 00-.134 2.706l.583 1.598a1.75 1.75 0 101.18 3.24l1.142 3.144H3.5a2.334 2.334 0 01-2.333-2.333z" fill="#000"/><path d="M3.5 19.248a.583.583 0 10-1.166 0v2.916a.583.583 0 101.166 0v-2.916zm-.583-4.084a.583.583 0 00.583-.583.583.583 0 100-1.167 1.182 1.182 0 00-.822.34 1.158 1.158 0 00-.344.827c0 .322.26.583.583.583zm11.823 4.33a1.159 1.159 0 00-.038.89l1.571 4.317a.583.583 0 001.098-.4L15.8 19.986a.583.583 0 10-.396-1.097 1.159 1.159 0 00-.663.606zm-8.907-.831a1.75 1.75 0 100-3.5 1.75 1.75 0 000 3.5zm0-2.333a.583.583 0 110 1.167.583.583 0 010-1.167zm19.677 3.92a1.75 1.75 0 101.48-3.172 1.75 1.75 0 00-1.48 3.172zm.212-1.832a.58.58 0 01.528-.338.583.583 0 11-.529.338h.001zM20.26 30.167a1.75 1.75 0 101.48-3.172 1.75 1.75 0 00-1.48 3.172zm.211-1.833a.58.58 0 01.529-.337.583.583 0 11-.53.337h.001zM5.833 22.747a1.75 1.75 0 100 3.5 1.75 1.75 0 000-3.5zm0 2.334a.583.583 0 110-1.167.583.583 0 010 1.167z" fill="#000"/></svg>