<svg width="35" height="34" fill="none" xmlns="http://www.w3.org/2000/svg"><path d="M17.502 0C8.13 0 .535 7.596.535 16.967c0 9.37 7.596 16.967 16.967 16.967 9.37 0 16.966-7.597 16.966-16.967C34.468 7.597 26.872 0 17.502 0zm0 28.692c-6.476 0-11.726-5.25-11.726-11.725 0-6.476 5.25-11.726 11.726-11.726 6.475 0 11.725 5.25 11.725 11.726 0 6.476-5.25 11.725-11.725 11.725z" fill="#D1884F"/><path d="M17.502 0v5.241c6.475 0 11.725 5.25 11.725 11.726 0 6.476-5.25 11.725-11.725 11.725v5.242c9.37 0 16.966-7.597 16.966-16.967C34.468 7.597 26.872 0 17.502 0z" fill="#FEDC90"/><circle cx="17.5" cy="16.5" r="8.5" fill="#FEDC90"/><path d="M14.47 16.515c-.607 0-1.1-.152-1.482-.455-.373-.312-.58-.728-.624-1.248a9.61 9.61 0 01-.026-.559c0-.121.009-.355.026-.702.035-.529.234-.945.598-1.248.373-.312.875-.468 1.508-.468s1.131.156 1.495.468c.373.303.576.72.611 1.248.017.347.026.58.026.702 0 .113-.009.299-.026.559-.043.52-.256.936-.637 1.248-.373.303-.862.455-1.469.455zM13.482 21a.394.394 0 01-.234-.065.265.265 0 01-.078-.195c0-.052.017-.1.052-.143l6.422-8.45a.734.734 0 01.195-.182.51.51 0 01.273-.065h1.352a.3.3 0 01.221.078.21.21 0 01.091.182c0 .052-.017.1-.052.143l-6.422 8.45a.857.857 0 01-.208.195.53.53 0 01-.26.052h-1.352zm.988-5.889c.2 0 .308-.13.325-.39a8.66 8.66 0 00.026-.546 6.58 6.58 0 00-.026-.533c-.017-.26-.126-.39-.325-.39-.2 0-.308.13-.325.39a7.383 7.383 0 00-.013.533c0 .243.004.425.013.546.017.26.126.39.325.39zm6.058 5.954c-.607 0-1.1-.152-1.482-.455-.373-.312-.58-.728-.624-1.248a9.61 9.61 0 01-.026-.559c0-.121.009-.355.026-.702.035-.529.234-.945.598-1.248.373-.312.875-.468 1.508-.468s1.131.156 1.495.468c.373.303.576.72.611 1.248.017.347.026.58.026.702 0 .113-.009.299-.026.559-.043.52-.256.936-.637 1.248-.373.303-.862.455-1.469.455zm0-1.404c.2 0 .308-.13.325-.39a8.66 8.66 0 00.026-.546 6.58 6.58 0 00-.026-.533c-.017-.26-.126-.39-.325-.39-.2 0-.308.13-.325.39a7.383 7.383 0 00-.013.533c0 .243.004.425.013.546.017.26.126.39.325.39z" fill="#fff"/><path d="M5.643 5.676a.638.638 0 00-.516-.524.738.738 0 00-.145-.015.623.623 0 00-.535.293L.114 11.855a.655.655 0 00-.064.62c.04.097.167.332.478.396l5.774 1.19a.654.654 0 00.596-.176.653.653 0 00.186-.594l-1.44-7.615z" fill="#FEDC90"/><path d="M34.952 21.416a.654.654 0 00-.476-.4l-5.767-1.225a.661.661 0 00-.787.765l1.394 7.624c.072.393.383.5.513.527a.64.64 0 00.683-.274l4.372-6.399a.653.653 0 00.068-.618z" fill="#D1884F"/></svg>