<svg width="26" height="26" fill="none" xmlns="http://www.w3.org/2000/svg"><path d="M22.913 13.004c-.116.583-.633 1.008-1.253 1.034a.425.425 0 00-.399.343.424.424 0 00.235.47c.562.263.876.854.758 1.438l-.111.554c-.146.73-.953 1.187-1.66 1.013-.198-.048-.401-.084-.602-.124-.295-.058-.59-.119-.886-.177-.39-.079-.781-.155-1.172-.235-.464-.092-.931-.187-1.396-.28l-1.56-.313c-.553-.111-1.11-.222-1.664-.335l-1.707-.343-1.692-.34-1.615-.325-1.477-.296c-.428-.084-.855-.171-1.28-.256a698.7 698.7 0 00-1.024-.206l-.705-.142-.324-.066c-.005 0-.01-.003-.016-.003a1.352 1.352 0 01-1.578 1.602c-.177-.034-.37.032-.446.195l-.237.515c-.077.163 0 .353.14.467.026.02 19.046 8.79 19.077 8.797.177.034.37-.032.446-.195l.238-.515c.076-.163 0-.353-.14-.467a1.348 1.348 0 01-.383-1.62 1.352 1.352 0 011.483-.76c.177.034.37-.032.446-.195l.238-.515c.076-.163 0-.353-.14-.467a1.348 1.348 0 01-.383-1.62 1.352 1.352 0 011.483-.76c.177.035.37-.031.446-.195l.238-.515c.076-.163 0-.353-.14-.467a1.348 1.348 0 01-.383-1.62 1.352 1.352 0 011.483-.76c.177.035.37-.031.446-.195l.261-.57a.325.325 0 00-.158-.433l-2.842-1.311-.045.193z" fill="#8F6C56"/><path d="M.25 12.821c.031.016 20.563 4.135 20.597 4.135.18-.008.354-.119.388-.293l.111-.554c.034-.177-.082-.346-.245-.422a1.352 1.352 0 01.517-2.573c.18-.008.353-.119.388-.293l.081-.406.03-.15c.034-.177-.082-.346-.246-.423a1.352 1.352 0 01.517-2.573c.18-.007.354-.118.388-.292l.111-.554c.034-.177-.082-.346-.245-.422a1.352 1.352 0 01.517-2.573c.18-.008.353-.119.388-.293l.124-.615a.325.325 0 00-.256-.383S2.783 0 2.762 0a.327.327 0 00-.32.261l-.124.615c-.034.177.082.346.246.422a1.352 1.352 0 01-.517 2.573c-.18.008-.354.119-.388.293l-.111.554c-.034.177.082.346.245.422a1.352 1.352 0 01-.517 2.573c-.18.008-.353.119-.388.293l-.11.554c-.035.177.081.346.245.422a1.352 1.352 0 01-.517 2.573c-.18.008-.354.119-.388.293l-.111.554c-.037.177.079.343.243.42zm17.587-6.763a.66.66 0 011.293.26l-.871 4.332-.536 2.67a.66.66 0 11-1.293-.258l.6-2.98.806-4.024zM5.94 3.67a.66.66 0 011.293.259l-.3 1.496-.34 1.697-.275 1.367-.489 2.443a.66.66 0 01-.828.504.658.658 0 01-.462-.762l.098-.494.256-1.277L5.94 3.67z" fill="#FECA7A"/></svg>