<svg width="32" height="32" fill="none" xmlns="http://www.w3.org/2000/svg"><path d="M16 0L8 16l8 16c8.837 0 16-7.163 16-16S24.837 0 16 0z" fill="#BFB063"/><path d="M0 16c0 8.837 7.163 16 16 16V0C7.163 0 0 7.163 0 16z" fill="#FEDC90"/><path d="M16 3.75L9.875 16 16 28.25c6.765 0 12.25-5.485 12.25-12.25S22.765 3.75 16 3.75z" fill="#FFF6E1"/><path d="M3.75 16c0 6.765 5.485 12.25 12.25 12.25V3.75C9.235 3.75 3.75 9.235 3.75 16z" fill="#fff"/><path d="M18.652 17.326L16 14.674h-1.25L16 17.326l1.326 1.326 1.326-1.326z" fill="#66380D"/><path d="M10.675 9.349l-1.326 1.326L16 17.325v-2.65l-5.325-5.326z" fill="#9F5C37"/><path d="M21.348 9.327L16 14.674l-1.25 2.652H16l6.673-6.673-1.325-1.326z" fill="#9F6337"/><path d="M13.349 17.326l1.326 1.326L16 17.326v-2.652l-2.652 2.652z" fill="#BC6838"/><path d="M16.938 5.625H16l-.625.938L16 7.5h.938V5.625z" fill="#66380D"/><path d="M15.063 5.625H16V7.5h-.938V5.625z" fill="#9F5C37"/><path d="M16.938 24.5H16l-.625.938.625.937h.938V24.5z" fill="#66380D"/><path d="M15.063 24.5H16v1.875h-.938V24.5zm-9.438-7.562v-1.875H7.5v1.874H5.625z" fill="#9F5C37"/><path d="M24.5 16.938v-1.875h1.875v1.874H24.5z" fill="#66380D"/></svg>