<svg width="25" height="25" fill="none" xmlns="http://www.w3.org/2000/svg"><path d="M.583 12.99C-.31 9.974.632 6.8 2.787 5.215c2.385-1.753 5.146-.743 5.46-.621.285-.54 2.015-3.695 5.48-4.44 3.363-.721 6.987 1.124 8.992 4.664a4.417 4.417 0 011.522 2.22c.553 1.95-.368 4.316-2.352 5.823L.583 12.99z" fill="#8F6C56"/><path d="M15.538 7.007a1.12 1.12 0 01-.066-.132.752.752 0 01-.044-.696c.3-.597.944-.834 1.564-.9.586-.064 1.447-.172 1.947.212.256.197.457.8.3 1.103-.25.485-1.205.596-1.65.68-.701.132-1.641.431-2.051-.267z" fill="#D1AE88"/><path d="M24.242 7.039a4.417 4.417 0 00-1.523-2.221 9.745 9.745 0 00-4.244-4.05 3.86 3.86 0 01.75 2.225c0 3.65-5.769 6.61-12.885 6.61a23.231 23.231 0 01-5.875-.728 7.96 7.96 0 00.118 4.115l21.306-.129c1.984-1.507 2.905-3.873 2.353-5.822z" fill="#E6E7E8"/><path d="M23.654 12.507a2.748 2.748 0 00-5.019-1.55 2.746 2.746 0 00-4.539 0 2.746 2.746 0 00-4.538 0 2.746 2.746 0 00-4.54 0A2.748 2.748 0 000 12.508l3.468 10.63a26.731 26.731 0 0016.718 0l3.468-10.63z" fill="#FECA7A"/><path d="M8.795 23.39a1.077 1.077 0 00-1.074.764 26.74 26.74 0 002.135.248 1.068 1.068 0 00-1.06-1.012zm2.555-9.933a1.098 1.098 0 101.115-1.11 1.077 1.077 0 00-1.115 1.11zm-2.563 4.765a1.098 1.098 0 10-1.12-1.108 1.08 1.08 0 001.12 1.108zm11.051 1.488a1.096 1.096 0 10.93 1.642l.124-.377a1.07 1.07 0 00-1.054-1.265zm-7.331 2.19a1.096 1.096 0 10-1.158-1.066 1.072 1.072 0 001.158 1.067zm-8.522-1.112a1.099 1.099 0 101.148-1.077 1.075 1.075 0 00-1.148 1.078zm4.777-9.932c.208.002.412-.054.59-.162a2.742 2.742 0 00-1.682-.907 1.072 1.072 0 001.092 1.07zM5.06 14.538a1.096 1.096 0 10-.375-2.118 1.095 1.095 0 00.375 2.118zm14.74 0a1.094 1.094 0 00.794-1.863 1.096 1.096 0 00-1.193-.25 1.095 1.095 0 00.4 2.113zM2.498 17.073a1.071 1.071 0 00-1.115-1.047c-.077.001-.153.01-.227.026l.68 2.085a1.076 1.076 0 00.662-1.064zm-.004-7.289c-.67.06-1.295.365-1.754.858.197.144.437.22.68.214a1.061 1.061 0 001.074-1.072zm13.608 1.072a1.058 1.058 0 001.11-.96 2.705 2.705 0 00-2.13.182 1.053 1.053 0 001.02.778zm.048 7.367a1.098 1.098 0 10-1.115-1.048 1.075 1.075 0 001.116 1.047zm6.844-7.484a2.754 2.754 0 00-.456-.432c.104.187.263.338.456.432zM16.136 23.39a1.064 1.064 0 00-1.083.887 27.466 27.466 0 002.034-.33 1.069 1.069 0 00-.951-.557z" fill="#EDB463"/><path d="M11.098 4.49c-.148-.338.337-.77.556-.971a2.353 2.353 0 011.52-.633c.399-.01.924.023 1.175.373a.75.75 0 01-.121 1.022c-.446.39-1.152.267-1.682.408-.347.092-1.015.206-1.328-.047a.405.405 0 01-.12-.152zM4.076 7.343a1.216 1.216 0 01-.052-.824c.115-.317.517-.52.795-.658.446-.222.94-.33 1.44-.314.399-.001.902.053 1.19.37.185.204.391.58.27.863-.14.322-.648.602-.971.678-.435.102-.879-.021-1.317.001-.313.016-.906.219-1.191.064a.412.412 0 01-.164-.18z" fill="#D1AE88"/></svg>