<svg width="505" height="137" fill="none" xmlns="http://www.w3.org/2000/svg"><mask id="a" maskUnits="userSpaceOnUse" x="0" y="0" width="505" height="137"><rect width="505" height="137" rx="20" fill="#E9B43F"/></mask><g opacity=".2" fill="#fff" mask="url(#a)"><path d="M404.244 92.95a.384.384 0 01-.357.357l-6.957 2.32c-.179 0-.536 0-.536-.358 0-.178 0-.535.357-.535l6.958-2.32c.178.18.356.18.535.536zm-134.332 63.33c0 .178 0 .357-.179.357-.178.178-.535 0-.535-.179l-14.45-22.834c-.179-.179 0-.536.178-.536.179-.178.535 0 .535.179l14.451 22.656v.357zm-17.306-89.377v.179l-2.854 5.352c-.179.178-.357.356-.535.178-.179-.178-.357-.357-.179-.535l2.855-5.352c.178-.178.356-.357.535-.178.178 0 .178.178.178.356zm28.9-45.847v.178c-.178.179-.356.357-.535.179l-8.206-4.817c-.178-.178-.357-.357-.178-.535.178-.178.356-.357.535-.178l8.206 4.816c0 .179.178.357.178.357zm40.853 66.364v.178c-.178.178-.357.356-.535.178l-22.656-14.272c-.179-.178-.179-.356-.179-.535.179-.178.357-.356.535-.178l22.657 14.272s.178.178.178.356zM15.697 52.633c0 .178 0 .178 0 0-.178.356-.357.535-.535.356l-7.314-2.14c-.179 0-.357-.357-.357-.536 0-.178.357-.356.535-.356l7.314 2.14c.357.179.357.357.357.535zm483.988 60.476v.178c-.178.178-.357.357-.535.178l-25.332-12.309c-.179-.178-.357-.357-.179-.535.179-.178.357-.357.535-.178l25.333 12.309c.178 0 .178.178.178.357zM266.522 34.792a.383.383 0 01-.357.357l-21.407 6.78c-.179 0-.535 0-.535-.358 0-.178 0-.535.356-.535l21.408-6.779c.178 0 .357.179.535.535zM113.457 57.627c0 .178 0 .178-.178.357L96.331 77.25c-.178.178-.356.178-.713 0-.179-.179-.179-.357 0-.714l16.947-19.267c.179-.178.357-.178.714 0 .178 0 .178.179.178.357zm64.045 49.416c0 .178 0 .357-.178.357l-14.272 7.671c-.178.178-.535 0-.535-.179-.178-.178 0-.535.178-.535l14.272-7.671c.179-.178.535 0 .535.178v.179zm-29.614 26.581s0 .178 0 0l-4.281 10.347c-.179.178-.357.357-.536.178-.178-.178-.356-.357-.178-.535l4.103-10.169c.178-.178.357-.356.535-.178.179 0 .357.178.357.357zm42.816-100.972a.383.383 0 01-.357.356l-10.704 3.925c-.178 0-.535 0-.535-.178s0-.535.179-.535l10.703-3.925c.179-.178.536 0 .714.357-.178-.179 0 0 0 0zM469.894-.887c0 .179 0 .179 0 0l-5.888 14.45c-.178.179-.356.357-.535.179-.178-.179-.357-.357-.178-.535l5.887-14.272c.178-.178.357-.357.535-.178 0 0 .179.178.179.356zM347.156 87.776a.383.383 0 01-.357.356c-.178 0-.535 0-.535-.356l-1.962-7.671c0-.179 0-.535.357-.535.178 0 .535 0 .535.356l1.962 7.85zm28.722 9.098c0 .179-.178.357-.178.357-.179.179-.536 0-.536-.178l-2.675-6.066c-.179-.178 0-.535.178-.535.178-.178.535 0 .535.179l2.676 6.065c-.178.178 0 .178 0 .178zm67.256-79.921c0 .178 0 .357-.179.357-.178.178-.535 0-.535-.179L430.824-2.492c-.178-.179 0-.535.179-.535.178-.179.535 0 .535.178l11.596 19.624c-.179 0 0 .178 0 .178zm-211.221 110.07v.179c-.178.178-.356.356-.535.178l-5.173-3.211c-.179-.179-.357-.357-.179-.535.179-.179.357-.357.535-.179l5.174 3.211c.178.179.178.179.178.357zm18.196-26.759s-.178 0 0 0l-2.14 6.423c0 .178-.357.356-.535.356-.179 0-.357-.356-.357-.535l1.962-6.244c0-.178.357-.356.535-.356.357 0 .535.178.535.356zm-89.198-77.067c0 .357-.357.535-.535.357l-10.704-1.784c-.178 0-.357-.357-.357-.535 0-.179.357-.357.535-.357l10.704 1.784c.178 0 .357.178.357.535zm252.788-11.239c0 .179 0 .179-.179.357-.178.178-.356.178-.713 0l-20.159-17.84c-.178-.178-.178-.356 0-.713.178-.179.357-.179.714 0l20.158 17.84c0 .178.179.356.179.356zm85.272 39.069c0 .178 0 .178-.178.356l-7.671 9.277c-.179.179-.357.179-.714 0-.178-.178-.178-.357 0-.713l7.671-9.277c.179-.178.357-.178.714 0 0 .178.178.178.178.357zM146.64 104.188a.383.383 0 01-.357.357l-34.252 8.563c-.178 0-.535 0-.535-.357 0-.178 0-.535.357-.535l34.252-8.563c.178 0 .357.178.535.535zm57.443-52.983v.178l-5.887 9.098c-.179.179-.357.179-.536.179-.178-.179-.178-.357-.178-.535l5.887-9.099c.179-.178.357-.178.535-.178.179 0 .179.178.179.357zM108.82 19.986v.178L99.9 39.788c-.178.178-.357.357-.535.178-.178-.178-.357-.357-.178-.535l8.92-19.624c.178-.178.356-.356.535-.178.178 0 .178.178.178.357zm289.715 8.919c0 .178 0 .357-.179.357l-6.422 4.816c-.178.179-.535.179-.714-.178-.178-.178-.178-.535.179-.713l6.422-4.817c.178-.179.535-.179.714.178v.357zM134.152 41.394c0 .357-.357.535-.535.357l-8.385-1.427c-.178 0-.357-.357-.357-.535 0-.179.357-.357.536-.357l8.384 1.427c.357.178.357.357.357.535zm365.533-11.418c0 .179 0 .179-.178.357-.179.179-.536.179-.714 0l-11.239-13.201c-.178-.179-.178-.535 0-.714.178-.178.535-.178.714 0l11.239 13.202a.553.553 0 01.178.356zm-66.006 4.995c0 .179 0 .357-.179.357l-26.224 13.736c-.178.179-.535 0-.535-.178-.178-.178 0-.535.178-.535l26.225-13.737c.178-.178.535 0 .535.179-.179 0 0 0 0 .178zM69.573 28.192a.384.384 0 01-.357.356c-.179 0-.535 0-.535-.178l-1.963-5.53c0-.179 0-.536.179-.536.178 0 .535 0 .535.179l2.14 5.709c0-.179 0-.179 0 0zm70.11 37.285v.178l-7.493 15.343c-.178.178-.357.356-.535.178-.179-.178-.357-.357-.179-.535l7.493-15.342c.178-.179.357-.357.535-.179 0 0 .179.179.179.357zM84.914 51.74c0 .179 0 .179-.178.357-.179.178-.536.178-.714 0l-4.282-4.638c-.178-.179-.178-.536 0-.714.179-.178.536-.178.714 0l4.282 4.638c.178.179.178.179.178.357zm-61.902 81.171c0 .178 0 .178-.179.356L9.275 144.15c-.178.178-.535.178-.713 0-.179-.179-.179-.536 0-.714l13.558-10.882c.178-.179.535-.179.713 0 .179.178.179.178.179.357zm151.28-64.758c0 .178 0 .357-.179.357-.178.178-.535.178-.535-.179l-15.877-22.478c-.179-.178-.179-.535.178-.535.178-.178.535-.178.535.179l15.878 22.478v.178zm122.379-19.089v.357c-.179 4.281-3.747 7.492-8.028 7.314-4.282-.178-7.493-3.746-7.315-8.028 0-2.14.892-3.925 2.498-5.352 1.606-1.427 3.568-2.14 5.53-1.962 4.103.178 7.315 3.568 7.315 7.67zm-14.451 0c0 1.784.714 3.39 1.784 4.638 1.249 1.427 2.855 2.14 4.817 2.14 1.784 0 3.568-.534 4.995-1.783 1.427-1.249 2.141-2.854 2.141-4.817.178-3.746-2.854-6.957-6.601-7.136-1.784 0-3.568.536-4.995 1.784-1.427 1.25-2.141 2.855-2.141 4.817v.357zM131.654 12.671c0 1.963-1.605 3.39-3.389 3.39-1.784 0-3.39-1.606-3.39-3.39 0-1.962 1.606-3.39 3.39-3.39s3.389 1.606 3.389 3.39zm-3.567 2.498c1.427 0 2.497-1.07 2.497-2.498 0-1.427-1.07-2.497-2.497-2.497-1.428 0-2.498 1.07-2.498 2.497 0 1.428 1.07 2.498 2.498 2.498zm84.381.892c0 .535-.178 1.07-.357 1.605-.892 1.963-3.211 2.855-4.995 1.963-.892-.357-1.605-1.249-1.962-2.14-.357-.893-.357-1.963 0-3.034.892-1.962 3.211-2.854 4.995-1.962.892.357 1.606 1.249 1.962 2.14.357.536.357 1.071.357 1.428zm-6.779 0c0 .357 0 .714.178 1.07a3.5 3.5 0 001.606 1.606c1.427.714 3.211 0 3.925-1.606a2.645 2.645 0 000-2.319 3.5 3.5 0 00-1.606-1.605c-1.427-.714-3.211 0-3.925 1.605-.178.535-.178.892-.178 1.249zM226.026 91.7c0 2.498-.892 5.174-2.854 7.136a11.052 11.052 0 01-7.493 3.568c-2.854.178-5.708-.892-7.671-2.854a11.061 11.061 0 01-3.568-7.493c-.178-2.854.892-5.709 2.855-7.67 3.924-4.46 10.882-4.818 15.163-.715 2.32 2.141 3.568 4.996 3.568 8.028zm-20.694 0v.535c.179 2.676 1.249 4.996 3.211 6.78 1.963 1.784 4.46 2.676 7.136 2.497 2.676-.178 4.995-1.249 6.779-3.211 3.568-4.103 3.39-10.347-.713-13.915-1.963-1.784-4.46-2.676-7.136-2.498-2.676.179-4.995 1.25-6.779 3.212-1.606 1.784-2.498 4.103-2.498 6.6zm221.389-18.73c0 .713-.357 1.426-.892 1.962-1.07.892-2.676.535-3.39-.536a3.45 3.45 0 01-.535-1.784c0-.713.357-1.248.892-1.605a3.442 3.442 0 011.784-.535c.714 0 1.249.357 1.606.892s.535 1.07.535 1.605zm-4.103 0c0 .356.178.713.357.891.535.714 1.427.892 2.14.357.714-.535.892-1.427.357-2.14-.535-.714-1.427-.893-2.141-.358-.356.179-.535.536-.535 1.07-.178 0-.178 0-.178.18zm44.42 47.988c0 1.606-.535 3.211-1.784 4.282-1.07 1.249-2.676 1.784-4.281 1.784-1.606 0-3.211-.535-4.46-1.784-1.249-1.071-1.784-2.676-1.784-4.282 0-1.605.535-3.211 1.784-4.281 1.07-1.249 2.676-1.784 4.281-1.784 1.606 0 3.212.535 4.46 1.784 1.071 1.07 1.784 2.676 1.784 4.281zm-11.417 0c0 3.033 2.498 5.352 5.352 5.352 1.427 0 2.676-.535 3.746-1.605.892-1.071 1.427-2.32 1.427-3.747s-.535-2.676-1.605-3.746c-1.071-1.07-2.319-1.606-3.747-1.427-1.427 0-2.675.535-3.746 1.605-.892.892-1.427 2.141-1.427 3.568zm-79.207-61.011c0 .535 0 .892-.179 1.427a8.948 8.948 0 01-3.568 5.887c-1.962 1.428-4.281 1.963-6.779 1.606-4.995-.713-8.206-5.53-7.492-10.347a8.945 8.945 0 013.568-5.887c1.962-1.427 4.281-1.962 6.779-1.605 4.46.713 7.671 4.46 7.671 8.92zm-17.126 0a7.83 7.83 0 001.605 4.817c1.249 1.784 3.211 2.854 5.352 3.211 4.46.714 8.563-2.319 9.277-6.779.713-4.46-2.319-8.563-6.779-9.276-2.141-.357-4.282.178-6.066 1.427-1.784 1.248-2.854 3.21-3.211 5.352-.178.356-.178.713-.178 1.248zM292.746-9.628c0 2.854-1.427 5.53-3.924 7.136-3.925 2.497-9.098 1.427-11.596-2.498-2.497-3.925-1.427-9.098 2.498-11.596 1.962-1.249 4.103-1.605 6.422-1.07 2.141.535 4.103 1.784 5.352 3.746.892 1.249 1.248 2.676 1.248 4.282zm-16.055 0c0 1.427.357 2.854 1.249 4.103 2.319 3.568 6.957 4.46 10.347 2.319 3.568-2.32 4.46-6.958 2.319-10.347-1.071-1.784-2.676-2.854-4.817-3.39-1.962-.356-3.925 0-5.709 1.07-1.784 1.071-2.854 2.677-3.389 4.817.178.357 0 .892 0 1.428zM44.596 104.724c0 1.962-.713 3.924-2.14 5.352-3.033 3.211-8.028 3.568-11.24.535-1.605-1.427-2.497-3.39-2.675-5.53-.179-2.141.713-4.104 2.14-5.71 3.033-3.21 8.028-3.567 11.24-.534 1.605 1.427 2.497 3.389 2.675 5.53v.357zm-12.666 5.173c2.855 2.676 7.315 2.498 9.99-.535 1.25-1.427 1.963-3.211 1.785-5.173-.179-1.963-.892-3.568-2.32-4.817-2.854-2.676-7.314-2.498-9.99.535-1.249 1.427-1.962 3.211-1.784 5.174 0 1.962.892 3.567 2.32 4.816zM251.18 4.822c0 1.606-.535 3.033-1.427 4.46-1.249 1.605-2.855 2.497-4.817 2.854-1.962.357-3.925-.178-5.352-1.427-1.605-1.249-2.497-2.854-2.854-4.817-.357-1.962.178-3.924 1.427-5.352 1.249-1.605 2.854-2.497 4.817-2.854 1.962-.357 3.924.179 5.352 1.427 1.605 1.25 2.497 2.855 2.854 4.817v.892zm-13.736 0v.892c.178 1.784 1.07 3.211 2.497 4.282 1.427 1.07 3.033 1.427 4.817 1.248 1.784-.178 3.211-1.07 4.281-2.497 1.071-1.427 1.427-3.033 1.249-4.817-.178-1.784-1.07-3.211-2.498-4.281-1.427-1.07-3.032-1.428-4.816-1.25-1.784.18-3.211 1.071-4.282 2.498-.713 1.25-1.248 2.498-1.248 3.925zm51.02 125.591c0 .357 0 .535-.178.892a2.837 2.837 0 01-1.427 1.784c-.714.357-1.606.357-2.319.178a2.831 2.831 0 01-1.784-1.427c-.357-.714-.357-1.606-.179-2.319a2.837 2.837 0 011.427-1.784c.714-.357 1.606-.357 2.32-.178a2.834 2.834 0 011.784 1.427c.178.535.356.892.356 1.427zm-5.173 0c0 .357 0 .713.178.892.179.535.714.892 1.249 1.07.535.179 1.07.179 1.606-.178.535-.179.892-.714 1.07-1.249.178-.535.178-1.07-.178-1.605-.357-.536-.714-.892-1.249-1.071-.535-.178-1.071-.178-1.606.179-.535.178-.892.713-1.07 1.248v.714zM184.103 2.86c0 1.249-.357 2.319-1.071 3.39-1.962 3.032-5.887 3.924-8.741 1.962-1.427-.892-2.498-2.32-2.855-3.925-.356-1.606 0-3.39.892-4.817s2.32-2.497 3.925-2.854c1.606-.357 3.39 0 4.817.892 1.962 1.249 3.033 3.211 3.033 5.352zm-11.953 0c0 .357 0 .892.178 1.249.357 1.427 1.249 2.676 2.498 3.39 1.249.713 2.676 1.07 4.103.713 1.427-.357 2.676-1.25 3.39-2.498 1.605-2.497.892-5.887-1.606-7.492-1.249-.714-2.676-1.07-4.103-.714-1.427.357-2.676 1.249-3.39 2.497-.713.714-1.07 1.784-1.07 2.855zm185.175 116.314c0 1.784-1.07 3.568-2.854 4.638-1.249.536-2.676.714-3.925.357-1.249-.357-2.319-1.249-3.033-2.497-.535-1.249-.713-2.676-.357-3.925.357-1.249 1.249-2.319 2.498-3.033 2.497-1.249 5.53-.357 6.779 2.319.714.536.892 1.428.892 2.141zm-9.277 0c0 .714.179 1.249.536 1.963.535 1.07 1.427 1.783 2.497 2.14 1.07.357 2.141.179 3.211-.178 1.071-.535 1.784-1.427 2.141-2.498.357-1.07.178-2.14-.178-3.211-1.071-2.141-3.568-2.854-5.709-1.784-1.07.535-1.784 1.427-2.141 2.498-.357.178-.357.713-.357 1.07zM91.693 11.245c0 1.783-1.427 3.21-3.032 3.21-.892 0-1.785-.178-2.32-.891-.713-.536-1.07-1.428-1.07-2.32 0-.892.178-1.783.892-2.319.535-.713 1.427-1.07 2.32-1.07 1.605 0 3.032 1.427 3.21 3.39 0-.179 0 0 0 0zm-3.21 2.319c1.248 0 2.318-1.07 2.318-2.498 0-1.249-1.249-2.32-2.497-2.32-.714 0-1.25.358-1.606.714-.357.536-.713 1.07-.535 1.784 0 .714.357 1.25.713 1.606.357.535 1.07.892 1.606.714zM374.451-7.309c0 1.249-.178 2.498-.535 3.746-1.07 3.033-3.033 5.352-5.887 6.78-2.854 1.427-5.887 1.605-8.92.713-3.033-1.07-5.352-3.033-6.779-5.887-1.427-2.854-1.605-5.887-.713-8.92.891-3.033 3.032-5.352 5.887-6.779 5.708-2.854 12.666-.535 15.698 5.174.714 1.605 1.249 3.39 1.249 5.173zm-22.478 0c0 1.606.357 3.211 1.071 4.817 1.248 2.497 3.568 4.46 6.244 5.352 2.675.892 5.708.713 8.206-.536 2.497-1.248 4.46-3.567 5.352-6.243.892-2.676.713-5.71-.536-8.207-1.248-2.497-3.567-4.46-6.243-5.351-2.676-.892-5.709-.714-8.207.535-2.497 1.248-4.46 3.568-5.352 6.244a11.226 11.226 0 00-.535 3.39zm-329.14 24.44c0 .714 0 1.25-.179 1.963-1.07 3.746-4.816 5.887-8.563 4.817-3.746-1.07-5.887-4.817-4.816-8.563 1.07-3.747 4.816-5.888 8.563-4.817 3.032.713 4.995 3.568 4.995 6.6zm-13.023 0c0 1.07.178 1.963.713 3.033.714 1.427 2.141 2.498 3.568 2.855 3.211.892 6.6-.892 7.493-4.103.892-3.212-.892-6.601-4.103-7.493-3.211-.892-6.6.892-7.493 4.103 0 .535-.178 1.07-.178 1.605zm269.557 65.293c0 2.14-1.427 4.103-3.568 4.817-2.676.713-5.352-.892-6.066-3.568-.356-1.249-.178-2.676.536-3.747.713-1.07 1.783-1.962 3.032-2.319 1.249-.356 2.676-.178 3.747.535 1.07.714 1.962 1.785 2.319 3.033-.179.535 0 .892 0 1.249zm-8.92 0c0 .357 0 .714.178 1.07.535 2.141 2.855 3.39 4.995 2.855 2.141-.535 3.39-2.855 2.855-4.995-.357-1.07-.892-1.963-1.784-2.498-.892-.535-1.963-.713-3.033-.357-1.07.357-1.962.892-2.497 1.784a3.424 3.424 0 00-.714 2.141zM16.41 81.532v.713c-.356 1.963-2.318 3.212-4.28 2.855-1.963-.357-3.212-2.32-2.855-4.282.357-1.962 2.319-3.21 4.281-2.854a3.645 3.645 0 012.855 3.568zm-4.28 2.676c1.426.356 3.032-.714 3.21-2.141.357-1.427-.713-3.033-2.14-3.211-1.428-.357-3.033.714-3.212 2.14-.356 1.428.536 3.033 2.141 3.212zm341.271-54.411c0 1.07-.178 2.32-.535 3.39-1.963 6.066-8.206 9.277-14.272 7.493-2.854-.892-5.352-2.855-6.601-5.53-1.427-2.677-1.605-5.71-.713-8.742 1.962-6.066 8.206-9.277 14.272-7.493a11.458 11.458 0 017.849 10.882zm-21.943 0a10.49 10.49 0 007.314 9.99c5.531 1.785 11.418-1.426 13.202-6.957.892-2.676.535-5.53-.714-8.028-1.249-2.497-3.568-4.281-6.244-5.173-5.53-1.784-11.417 1.427-13.201 6.957-.178 1.07-.357 2.141-.357 3.211zM75.995 132.91c0 2.676-.892 5.352-2.855 7.493a11.178 11.178 0 01-7.849 3.925c-3.033.178-6.065-.714-8.384-2.676a11.177 11.177 0 01-3.925-7.85c-.535-6.243 4.281-11.952 10.525-12.309 3.033-.178 6.066.714 8.385 2.676a11.174 11.174 0 013.924 7.849c.179.179.179.536.179.892zm-22.121 0v.892c.178 2.855 1.605 5.352 3.746 7.315 2.14 1.784 4.817 2.676 7.671 2.497 2.854-.178 5.352-1.605 7.314-3.746 1.784-2.141 2.676-4.817 2.498-7.671-.178-2.854-1.606-5.352-3.746-7.314-2.141-1.784-4.817-2.676-7.672-2.498-5.53.357-9.811 4.995-9.811 10.525zm66.719 10.169c0 1.962-.535 3.925-1.605 5.887-3.211 5.53-10.347 7.314-15.699 4.103-2.676-1.605-4.638-4.103-5.352-6.957-.713-3.033-.357-6.066 1.249-8.742 1.605-2.676 4.103-4.638 6.957-5.352 3.033-.713 6.066-.356 8.742 1.249 3.568 1.963 5.708 5.887 5.708 9.812zm-22.12 0c0 3.746 1.962 7.136 5.173 9.277 4.995 3.032 11.596 1.248 14.628-3.747 1.427-2.497 1.784-5.352 1.071-8.028-.714-2.675-2.498-4.995-4.995-6.422-2.498-1.427-5.352-1.784-8.028-1.07-2.676.713-4.995 2.497-6.422 4.995-1.07 1.249-1.428 3.033-1.428 4.995zM45.132 72.97v.535c-.179.713-.535 1.427-1.249 1.784-.714.356-1.427.535-2.14.535-.714-.178-1.428-.535-1.785-1.249-.356-.713-.535-1.427-.535-2.14.178-.714.535-1.428 1.249-1.785.713-.356 1.427-.535 2.14-.535.714.179 1.428.535 1.785 1.249.356.535.535 1.07.535 1.605zm-4.817 0c0 .356.178.713.357 1.07.357.357.713.713 1.249.892.535.178 1.07 0 1.427-.357s.713-.713.892-1.249c.178-.535 0-1.07-.357-1.427s-.714-.713-1.249-.892c-.535-.178-1.07 0-1.427.357s-.714.713-.892 1.249v.356zm6.245-32.469c0 .535 0 .892-.178 1.427-.714 3.568-4.282 5.709-7.671 4.995-3.568-.713-5.71-4.281-4.995-7.67.713-3.569 4.281-5.71 7.67-4.996 3.033.535 5.174 3.211 5.174 6.244zm-7.671 5.352c3.033.714 6.065-1.249 6.6-4.282.714-3.032-1.248-6.065-4.28-6.6-3.034-.714-6.066 1.249-6.602 4.281-.713 3.033 1.25 6.066 4.282 6.601zm395.861 83.846c0 1.249-.357 2.498-1.249 3.39-1.963 2.497-5.53 3.033-8.028 1.07-2.498-1.962-3.033-5.53-1.07-8.027 1.962-2.498 5.53-3.033 8.027-1.071 1.606 1.249 2.32 3.033 2.32 4.638zm-8.563 3.925c2.14 1.606 5.173 1.249 6.779-.892 1.605-2.141 1.248-5.173-.892-6.779-2.141-1.605-5.174-1.249-6.779.892-1.606 2.141-1.249 5.174.892 6.779zm42.815-95.799c0 .892-.357 1.784-.892 2.32-1.249 1.248-3.39 1.427-4.817 0-1.248-1.25-1.427-3.39 0-4.817.714-.714 1.427-1.07 2.319-1.07.892 0 1.784.356 2.498.891.535.892.892 1.784.892 2.676zm-5.887 0c0 .714.178 1.249.714 1.784 1.07.892 2.497.892 3.567 0 .892-1.07.892-2.497 0-3.568-.535-.535-1.07-.713-1.784-.713-.713 0-1.248.356-1.783.713-.536.536-.714 1.25-.714 1.784zm-265.098 79.922c0 .179 0 .357-.178.357l-1.071.714c-.178.178-.535 0-.535-.179-.178-.178 0-.535.179-.535l1.07-.714c.178-.178.535 0 .535.179v.178zm281.153-37.82c0 .178-.179.535-.535.357h-1.606c-.178 0-.357-.179-.357-.535 0-.179.179-.357.535-.357h1.606c.178 0 .357.178.357.535zM318.613 126.31a.383.383 0 01-.356.356l-1.963.714c-.178 0-.535 0-.535-.357 0-.178 0-.535.357-.535l1.962-.535c.179-.179.535 0 .535.357 0-.179 0-.179 0 0zm134.868-38.712c0 .357-.357.535-.535.357l-1.071-.178c-.178 0-.356-.357-.356-.536 0-.178.356-.356.535-.356l1.07.178c.179.178.357.357.357.535zM49.057 4.822L48.88 6.25c0 .178-.357.356-.535.356-.179 0-.357-.356-.357-.535l.178-1.427c0-.178.357-.357.535-.357.179.179.357.357.357.535zm13.201 51.2c0 .178 0 .357-.178.357-.179.178-.536 0-.536-.179l-.356-.892c-.179-.178 0-.535.178-.535.178-.179.535 0 .535.178l.357.892v.179zm438.141 26.581v.713c0 .179-.179.357-.536.357-.178 0-.356-.178-.356-.535v-.714c0-.178.178-.357.535-.357.357 0 .357.357.357.536zM224.242 36.22v.179c-.178.178-.357.178-.535.178l-1.606-1.07c-.178-.179-.178-.357-.178-.536.178-.178.357-.178.535-.178l1.606 1.07a.555.555 0 01.178.357zm81.527-19.089v.178c-.178.179-.357.357-.535.179l-.357-.178c-.178-.179-.357-.357-.178-.536.178-.178.357-.356.535-.178l.357.178c0 .179.178.357.178.357zm91.874 52.806c0 .178-.178.535-.535.357h-.714c-.178 0-.535-.179-.356-.535 0-.179.178-.357.535-.357h.713c.179 0 .357.178.357.535zm68.326-6.422v.178l-.179.535c-.178.179-.356.357-.535.179-.178-.179-.357-.357-.178-.536l.178-.535c.179-.178.357-.357.535-.178.179 0 .179.178.179.357zm-140.22 43.528c0 .178 0 .178-.179.356-.178.179-.356.179-.713 0l-1.249-1.07c-.178-.178-.178-.357 0-.714.178-.178.357-.178.714 0l1.248 1.071c.179 0 .179.178.179.357zm81.527 8.563c0 .357-.356.535-.535.357l-1.249-.179c-.178 0-.356-.356-.356-.535 0-.178.356-.357.535-.357l1.249.179c.178.178.356.357.356.535zm-92.766-76.71c0 .178 0 .178-.178.357-.178.178-.535.178-.714 0l-.356-.357c-.179-.179-.179-.535 0-.714.178-.178.535-.178.713 0l.357.357c0 .178.178.178.178.357zM8.74 111.503c0 .178 0 .178-.179.357l-.535.535c-.178.178-.535.178-.713 0-.179-.178-.179-.535 0-.714l.535-.535c.178-.178.535-.178.713 0a.554.554 0 01.179.357zm435.464-54.412v.179l-.892 1.784c-.178.178-.357.356-.535.178-.178-.178-.357-.357-.178-.535l.892-1.784c.178-.178.356-.357.535-.178 0 0 .178.178.178.356zm-171.081 52.807s0 .178 0 0l-.535 1.427c-.179.178-.357.357-.536.178-.178-.178-.356-.356-.178-.535l.535-1.249c.179-.178.357-.356.535-.178.179 0 .179.178.179.357zm220.854 26.223v.179c-.178.178-.357.357-.535.178l-.535-.357c-.179-.178-.179-.356-.179-.535.179-.178.357-.357.535-.178l.536.357c.178.178.178.178.178.356zM69.215 95.983c0 .356-.356.535-.535.356l-1.249-.356c-.178 0-.356-.357-.356-.536 0-.178.356-.356.535-.356l1.249.356c.178 0 .356.179.356.535zm158.952-36.572a.384.384 0 01-.357.357l-.714.179c-.178 0-.535 0-.535-.357 0-.179 0-.535.357-.535l.714-.179c.178 0 .356.179.535.535zm-69.04 24.798c0 .178 0 .178-.178.356-.179.179-.536.179-.536 0l-.356-.356c-.179-.179-.179-.536 0-.714.178-.178.535-.178.713 0l.357.357v.357zm138.793 20.336c0 .178 0 .178-.179.357l-.713.713c-.179.179-.536.179-.714 0-.178-.178-.178-.535 0-.713l.714-.714c.178-.178.535-.178.713 0 .179.179.179.179.179.357zm-121.488 30.328v.179l-.178.356c-.179.179-.357.357-.535.179-.179-.179-.357-.357-.179-.535l.179-.357c.178-.179.356-.357.535-.179.178 0 .178.179.178.357zm255.284-36.037c0 .179 0 .357-.178.357l-.357.178c-.179.179-.535 0-.535-.178-.179-.178 0-.535.178-.535l.357-.178c.178-.179.535 0 .535.178v.178zM184.817 87.24c0 .18 0 .18-.179.358-.178.178-.356.178-.713 0l-.892-.714c-.179-.178-.179-.357 0-.713.178-.179.357-.179.713 0l.892.713c.179 0 .179.178.179.357zM73.318 75.646a.384.384 0 01-.357.357c-.178 0-.535-.179-.535-.357l-.178-.714c0-.178.178-.535.357-.535.178 0 .535.178.535.357l.178.892zm253.679-14.807c0 .178 0 .178-.178.356l-.178.357c-.179.178-.357.178-.714 0-.178-.178-.178-.357 0-.713l.178-.357c.179-.179.357-.179.714 0 .178 0 .178.178.178.357zM113.28 89.56c0 .178 0 .178-.179.357l-1.07.892c-.178.178-.535.178-.713 0-.179-.179-.179-.535 0-.714l1.07-.892c.178-.178.535-.178.713 0 .179.179.179.357.179.357zm-23.014 14.629v.178l-.178.357c-.179.178-.357.357-.535.178-.179-.178-.357-.356-.179-.535l.178-.357c.179-.178.357-.356.536-.178 0 .178.178.357.178.357zM377.84 20.164c0 .179 0 .179-.178.357-.179.179-.357.179-.714 0l-.535-.535c-.178-.178-.178-.357 0-.714.178-.178.357-.178.714 0l.535.536c.178 0 .178.178.178.356zm5.709 102.934s0 .179 0 0l-.178.536c0 .178-.357.356-.535.178-.179 0-.357-.357-.179-.535l.179-.357c0-.178.357-.357.535-.178.178 0 .178.178.178.356z"/></g></svg>