<svg width="39" height="39" fill="none" xmlns="http://www.w3.org/2000/svg"><rect y=".907" width="38.093" height="38.093" rx="19.047" fill="#E8C086"/><path d="M7.753 13.805c3.668-3.996 6.75-4.692 8.943-4.96 4.709-.576 4.187-1.64 8.13-.849 1.871.376 2.268 1.362 6.049 2.867 3.046 1.212 2.894 3.572 2.047 5.907-1.474 4.063-7.808 5.096-11.283 4.99-7.821-.236-12.852-6.59-13.886-7.955z" fill="#FECA7A"/><path d="M7.587 12.826c-.581.566-3.597 3.502-3.079 6.075.152.753.797 2.425 10.894 4.445 9.6 1.92 12.3 1.064 14.327-.593.446-.364 2.38-2.38 2.622-4.149.474-3.456.187-7.228-6.002-6.828-6.534.421-7.86-.8-10.355-1.32-1.206-.252-5.13-.82-8.407 2.37z" fill="#8F6C56"/><path d="M28.417 11.815c-.752 2.849-6.957 5.071-14.501 5.071a32.014 32.014 0 01-8.688-1.114c-.555.982-.93 2.084-.72 3.129.151.753.797 2.425 10.893 4.444 9.6 1.92 12.3 1.064 14.328-.592.445-.365 2.38-2.38 2.622-4.149.414-3.02.246-6.282-3.934-6.79z" fill="#E6E7E8"/><path d="M32.825 20.697a3.35 3.35 0 00-6.116-1.889 3.348 3.348 0 00-5.531 0 3.347 3.347 0 00-5.531 0 3.346 3.346 0 00-5.531 0A3.35 3.35 0 004 20.697L8.226 33.65a32.574 32.574 0 0020.373 0l4.226-12.954z" fill="#FC7EB2"/><path d="M13.965 13.915a2.697 2.697 0 10-2.064-4.984 2.697 2.697 0 002.064 4.984z" fill="#D84774"/><path d="M14.291 9.105c.246.41.378.88.38 1.359a2.698 2.698 0 01-2.697 2.697 2.67 2.67 0 01-1.359-.38 2.69 2.69 0 103.676-3.676z" fill="#E6E7E8"/><path d="M12.42 9.992a.312.312 0 01-.31-.304c-.003-.088-.029-2.164 2.098-3.633a.312.312 0 01.354.513 3.974 3.974 0 00-1.83 3.105.312.312 0 01-.304.319h-.007z" fill="#C6DD7D"/><path d="M14.55 21.442a1.133 1.133 0 10-.426-2.182 1.132 1.132 0 00.426 2.182zm2.673 2.687a1.134 1.134 0 101.151-1.146 1.11 1.11 0 00-1.15 1.146zm-7.607 7.572a1.135 1.135 0 101.186-1.113 1.111 1.111 0 00-1.186 1.113zm4.968 2.687a1.122 1.122 0 00-.992.526 32.67 32.67 0 002.035.244 1.1 1.1 0 00-1.043-.77zm-.05-7.605a1.134 1.134 0 101.155 1.081 1.118 1.118 0 00-1.155-1.081zm15.253-.001a1.135 1.135 0 10-.043 2.269c.127 0 .253-.019.374-.057l.57-1.747a1.113 1.113 0 00-.901-.465zm-1.157-6.456a1.134 1.134 0 101.152-1.149 1.11 1.11 0 00-1.152 1.149zm-17.902 4.919a1.132 1.132 0 10-.387-2.187 1.132 1.132 0 00.387 2.187zm-3.797-6.068a1.133 1.133 0 101.15 1.084 1.11 1.11 0 00-1.15-1.084zm19.021 6.068a1.13 1.13 0 00.455-2.172 1.131 1.131 0 00-.433-.09 1.13 1.13 0 00-1.066 1.555 1.13 1.13 0 001.044.707zm-1.125 6.415a1.117 1.117 0 001.109 1.19 1.13 1.13 0 10.054-2.262 1.119 1.119 0 00-1.163 1.073zm-2.66 2.728a1.095 1.095 0 00-1.081.782 32.4 32.4 0 002.044-.241 1.106 1.106 0 00-.963-.541zM18.328 17.64a1.15 1.15 0 00.72-.227 3.113 3.113 0 00-1.36.017c.187.133.41.206.64.21zM8.081 27.864a1.14 1.14 0 00-1.976-.715l.613 1.878c.083.017.168.025.253.024a1.11 1.11 0 001.11-1.187zm10.337 4.986a1.132 1.132 0 10-1.196-1.101 1.108 1.108 0 001.196 1.101zm3.722-6.068a1.134 1.134 0 101.152 1.082 1.11 1.11 0 00-1.152-1.082zm-.01-5.339a1.133 1.133 0 10-1.101-1.13 1.101 1.101 0 001.102 1.13z" fill="#E867A2"/><path fill-rule="evenodd" clip-rule="evenodd" d="M28.367 8.855a1.966 1.966 0 00-1.133-2.804 1.976 1.976 0 00-2.46 1.29l-.725 2.321c-.267-.083-.521-.212-.789-.295a4.503 4.503 0 00-.773-.192l.725-2.322a1.976 1.976 0 00-1.29-2.46c-1.16-.362-2.388.431-2.571 1.647l-.36 2.876c-1.977.216-3.734 1.137-4.25 2.789l-.32 1.026c-.432 1.384.099 2.823 1.156 3.986 1.044 1.208 2.601 2.184 4.52 2.783 1.92.599 3.755.682 5.3.282 1.487-.369 2.742-1.25 3.174-2.634l.32-1.027c.516-1.651-.36-3.395-1.864-4.697l1.34-2.57zm-8.817.628l.423-3.396c.117-.845.934-1.423 1.782-1.158.714.223 1.113.984.89 1.699l-.92 2.946c.193.01.416.08.595.136.268.084.505.109.773.192.268.084.535.168.79.296.178.056.387.17.566.226l.905-2.902a1.357 1.357 0 011.699-.89 1.35 1.35 0 01.762 1.952l-1.583 3.033c1.652 1.3 2.511 2.94 2.066 4.368l-.321 1.026c-.683 2.188-4.141 3.067-7.712 1.953-3.571-1.115-5.916-3.806-5.233-5.993l.32-1.027c.416-1.487 2.056-2.346 4.198-2.461z" fill="#916834"/><path d="M15.001 12.912c-.682 2.188 1.662 4.879 5.233 5.993 3.571 1.115 7.03.235 7.712-1.952l.32-1.027-12.989-4.054-.32 1.027.044.014z" fill="#FDDEB5"/><path fill-rule="evenodd" clip-rule="evenodd" d="M27.815 8.584a1.35 1.35 0 00-.762-1.952 1.357 1.357 0 00-1.699.89l-.92 2.946c-.432-.184-.864-.368-1.355-.52-.446-.14-.907-.235-1.367-.33l.92-2.946a1.357 1.357 0 00-.891-1.698c-.803-.25-1.665.313-1.782 1.158l-.423 3.395c-2.098.13-3.782.975-4.228 2.404-.683 2.187 1.662 4.878 5.233 5.992 3.57 1.115 7.03.235 7.712-1.952.446-1.429-.414-3.069-2.066-4.368l1.628-3.019z" fill="#F4B666"/><path d="M23.708 14.21c-.181.58-.022 1.168.38 1.294.401.125.867-.268 1.048-.849.181-.58.022-1.169-.38-1.294-.401-.125-.867.268-1.048.848zm-4.955-1.547c-.18.58-.022 1.169.38 1.294s.868-.268 1.049-.848c.18-.58.022-1.17-.38-1.294-.402-.126-.867.268-1.049.848z" fill="#906834"/></svg>