<svg width="39" height="39" fill="none" xmlns="http://www.w3.org/2000/svg"><rect y=".907" width="38.093" height="38.093" rx="19.047" fill="#FFCCD8"/><path d="M5.655 19.605c-1.004-3.39.055-6.96 2.478-8.74 2.682-1.972 5.786-.836 6.139-.7.32-.606 2.266-4.154 6.161-4.99 3.781-.812 7.856 1.263 10.11 5.242a4.967 4.967 0 011.712 2.498c.621 2.191-.414 4.852-2.645 6.546l-23.955.144z" fill="#8F6C56"/><path d="M22.47 12.878a1.279 1.279 0 01-.075-.148.848.848 0 01-.049-.782c.338-.672 1.06-.938 1.759-1.013.658-.07 1.626-.192 2.189.24.288.22.513.898.337 1.24-.282.545-1.355.67-1.855.764-.789.148-1.845.485-2.307-.3z" fill="#D1AE88"/><path d="M32.255 12.915a4.968 4.968 0 00-1.712-2.498 10.957 10.957 0 00-4.771-4.553c.533.726.828 1.6.843 2.501 0 4.105-6.486 7.432-14.487 7.432a26.122 26.122 0 01-6.605-.818 8.95 8.95 0 00.132 4.626l23.955-.144c2.23-1.694 3.266-4.355 2.645-6.546z" fill="#E6E7E8"/><path d="M31.595 19.063a3.09 3.09 0 00-5.643-1.742 3.088 3.088 0 00-5.103 0 3.087 3.087 0 00-5.103 0 3.088 3.088 0 00-5.103 0A3.09 3.09 0 005 19.063l3.899 11.952a30.054 30.054 0 0018.797 0l3.899-11.952z" fill="#FECA7A"/><path d="M14.89 31.298a1.212 1.212 0 00-1.208.859c.8.126 1.6.219 2.4.279a1.2 1.2 0 00-1.193-1.138zm2.872-11.168a1.235 1.235 0 101.253-1.247 1.208 1.208 0 00-1.253 1.247zm-2.882 5.358a1.236 1.236 0 10-1.26-1.246 1.214 1.214 0 001.26 1.246zm12.425 1.674a1.232 1.232 0 101.047 1.845l.138-.424a1.203 1.203 0 00-1.185-1.422zm-8.242 2.462a1.234 1.234 0 10-1.302-1.2 1.208 1.208 0 001.302 1.2zM9.48 28.373a1.236 1.236 0 101.291-1.211 1.21 1.21 0 00-1.29 1.211zm5.372-11.167c.234.002.463-.06.664-.182a3.083 3.083 0 00-1.892-1.02 1.206 1.206 0 001.228 1.202zm-4.162 4.14a1.232 1.232 0 10-.421-2.382 1.23 1.23 0 00.421 2.382zm16.573-.001a1.23 1.23 0 10.025-2.462 1.232 1.232 0 10-.025 2.462zM7.81 24.196a1.204 1.204 0 00-1.255-1.177 1.324 1.324 0 00-.255.029l.765 2.345a1.21 1.21 0 00.745-1.197zM7.805 16a3.068 3.068 0 00-1.972.965c.222.162.49.247.765.241A1.193 1.193 0 007.805 16zm15.299 1.206a1.19 1.19 0 001.25-1.079 3.04 3.04 0 00-2.396.204 1.185 1.185 0 001.146.875zm.055 8.282a1.236 1.236 0 10-1.254-1.177 1.209 1.209 0 001.254 1.177zm7.694-8.414a3.092 3.092 0 00-.512-.485c.117.21.296.38.512.485zm-7.71 14.224a1.196 1.196 0 00-1.218.998 30.83 30.83 0 002.287-.372 1.201 1.201 0 00-1.069-.626z" fill="#EDB463"/><path d="M17.477 10.048c-.165-.38.38-.866.626-1.092a2.646 2.646 0 011.709-.711c.448-.011 1.039.027 1.321.42a.843.843 0 01-.136 1.149c-.501.44-1.295.3-1.89.458-.391.104-1.142.232-1.494-.053a.455.455 0 01-.136-.17zm-7.895 3.208a1.367 1.367 0 01-.058-.926c.129-.356.58-.585.894-.74a3.392 3.392 0 011.618-.353c.449-.001 1.015.06 1.338.416.209.23.44.653.304.97-.156.363-.728.678-1.092.763-.488.115-.987-.024-1.48.001-.352.018-1.019.246-1.34.072a.463.463 0 01-.184-.203z" fill="#D1AE88"/><path fill-rule="evenodd" clip-rule="evenodd" d="M28.551 8.3a1.939 1.939 0 00-.98-2.818 1.95 1.95 0 00-2.487 1.151l-.826 2.252c-.26-.095-.504-.234-.764-.33-.26-.095-.476-.174-.752-.226l.827-2.252a1.949 1.949 0 00-1.151-2.486c-1.126-.414-2.374.307-2.614 1.497l-.493 2.816c-1.96.116-3.735.939-4.324 2.54l-.365.997c-.493 1.342-.04 2.786.945 3.983.97 1.24 2.456 2.278 4.318 2.961 1.862.684 3.667.855 5.209.537 1.483-.291 2.762-1.1 3.255-2.442l.365-.996c.589-1.602-.19-3.362-1.609-4.718l1.446-2.467zm-8.718.19l.582-3.325c.156-.827.99-1.357 1.812-1.055a1.339 1.339 0 01.795 1.717l-1.05 2.858c.19.02.406.1.58.163.26.096.492.132.751.227.26.096.52.191.764.33.173.063.374.186.547.25l1.033-2.815a1.339 1.339 0 011.717-.795 1.333 1.333 0 01.656 1.961l-1.707 2.911c1.564 1.36 2.331 3.018 1.823 4.404l-.366.996c-.779 2.122-4.23 2.82-7.694 1.549-3.464-1.272-5.643-4.037-4.864-6.16l.366-.995c.481-1.445 2.139-2.213 4.255-2.222z" fill="#A14158"/><path d="M15.185 11.648c-.78 2.121 1.4 4.887 4.864 6.159 3.464 1.271 6.915.573 7.694-1.55l.365-.995-12.6-4.626-.366.996.043.016z" fill="#F1BAC7"/><path fill-rule="evenodd" clip-rule="evenodd" d="M28.02 8.006a1.333 1.333 0 00-.656-1.96 1.339 1.339 0 00-1.717.794l-1.049 2.858c-.417-.202-.834-.405-1.31-.58a13.95 13.95 0 00-1.332-.39l1.05-2.858a1.339 1.339 0 00-.795-1.717c-.78-.286-1.656.228-1.812 1.055l-.582 3.325c-2.073.025-3.774.776-4.283 2.162-.779 2.122 1.4 4.887 4.864 6.159 3.465 1.272 6.915.573 7.694-1.549.509-1.386-.258-3.043-1.823-4.404l1.751-2.895z" fill="#F96E8F"/><path d="M23.7 13.349c-.207.563-.079 1.15.311 1.293.39.143.868-.222 1.075-.785.206-.563.078-1.15-.312-1.293-.39-.143-.867.222-1.074.785zm-4.806-1.765c-.207.563-.079 1.15.311 1.294.39.143.868-.222 1.074-.785.207-.563.079-1.15-.311-1.294-.39-.143-.868.222-1.074.785z" fill="#A24158"/></svg>