<svg width="46" height="46" fill="none" xmlns="http://www.w3.org/2000/svg"><rect width="46" height="46" rx="23" fill="#F6CC84"/><path d="M15.097 19.753L23 11.85l7.907 7.906 4.598-4.598L23 2.654l-12.5 12.5 4.597 4.599zM2.654 23l4.598-4.6L11.85 23l-4.598 4.598L2.654 23zm12.443 3.247L23 34.15l7.906-7.906 4.601 4.595-.002.003L23 43.346l-12.5-12.5-.007-.007 4.605-4.592zm19.053-3.245l4.598-4.598 4.598 4.598-4.598 4.598-4.598-4.598z" fill="#D1884F"/><path d="M27.663 22.997h.002L23 18.332l-3.448 3.447-.396.397-.817.817-.007.006.007.007L23 27.668l4.666-4.666.003-.002-.005-.003" fill="#D1884F"/></svg>