<svg width="46" height="46" fill="none" xmlns="http://www.w3.org/2000/svg"><rect width="46" height="46" rx="23" fill="#F6CC84"/><path fill-rule="evenodd" clip-rule="evenodd" d="M11.293 10.52C10.742 7.65 12.95 5 15.82 5c2.54 0 4.638 2.098 4.638 4.637v5.742c.662 0 1.325-.11 1.987-.11.663 0 1.215 0 1.877.11V9.637C24.322 7.097 26.42 5 28.959 5c2.871 0 5.08 2.65 4.638 5.52l-1.215 6.736c4.306 1.877 7.619 5.189 7.619 9.274v2.54c0 3.422-2.209 6.293-5.41 8.17-3.203 1.988-7.398 3.092-12.146 3.092-4.748 0-8.943-1.104-12.145-3.092C7.208 35.363 5 32.492 5 29.07v-2.54c0-4.085 3.202-7.397 7.508-9.274l-1.214-6.735zm19.433 7.619l1.435-7.95c.331-1.987-1.104-3.864-3.202-3.864a3.204 3.204 0 00-3.202 3.202v7.287c-.441-.11-.993-.11-1.435-.11-.662 0-1.214-.11-1.877-.11-.662 0-1.325 0-1.987.11-.442 0-.994.11-1.436.11V9.637a3.204 3.204 0 00-3.202-3.202c-1.987 0-3.533 1.877-3.091 3.865l1.435 7.95c-4.637 1.766-7.729 4.858-7.729 8.39v2.54c0 5.41 7.177 9.827 16.01 9.827 8.833 0 16.01-4.417 16.01-9.827v-2.54c.11-3.643-2.981-6.734-7.73-8.501z" fill="#633001"/><path d="M38.564 29.07c0 5.41-7.177 9.826-16.01 9.826-8.832 0-16.01-4.416-16.01-9.826v-2.54h32.13v2.54h-.11z" fill="#FEDC90"/><path fill-rule="evenodd" clip-rule="evenodd" d="M12.728 10.3c-.442-1.988 1.104-3.865 3.091-3.865a3.204 3.204 0 013.202 3.202v7.288c1.105-.11 2.209-.221 3.423-.221 1.104 0 2.208.11 3.313.22V9.638a3.204 3.204 0 013.201-3.202c1.988 0 3.534 1.877 3.202 3.865l-1.435 7.95c4.637 1.766 7.84 4.858 7.84 8.39 0 5.411-7.177 9.828-16.01 9.828-8.833 0-16.01-4.417-16.01-9.827 0-3.533 3.091-6.625 7.729-8.391l-1.546-7.95z" fill="#D1884F"/><path d="M18.03 25.867c0 1.435-.773 2.65-1.767 2.65-.994 0-1.767-1.215-1.767-2.65 0-1.435.773-2.65 1.767-2.65.994 0 1.766 1.215 1.766 2.65zm12.255 0c0 1.436-.773 2.65-1.767 2.65-.994 0-1.767-1.214-1.767-2.65 0-1.435.773-2.65 1.767-2.65.994 0 1.767 1.215 1.767 2.65z" fill="#633001"/></svg>