<svg width="54" height="54" fill="none" xmlns="http://www.w3.org/2000/svg"><path d="M16.796 7.212a.773.773 0 00-1.055-.283l-1.99 1.15a.772.772 0 00-.283 1.055l1.887 3.269.317.04 2.99-1.729v-.272l-1.866-3.23z" fill="#AF703F"/><path d="M15.2 8.095a.969.969 0 01-.073-.81l-1.377.794a.772.772 0 00-.282 1.055l1.887 3.27.317.04 1.53-.885L15.2 8.095z" fill="#D1884F"/><path d="M28.22 3.668h-3.452l-.182.175v4.98l.159.202h3.394l.29-.203V3.843l-.21-.175z" fill="#986238"/><path d="M26.508 3.843l.182-.175h-1.922l-.182.175v4.98l.159.202h1.922l-.16-.203V3.843z" fill="#B87541"/><path d="M39.753 40.718c7.319-7.318 7.319-19.184 0-26.502-7.318-7.318-19.183-7.318-26.502 0-7.318 7.318-7.318 19.184 0 26.502 7.319 7.319 19.184 7.319 26.502 0z" fill="#FEDC90"/><path d="M10.874 27.468c0-9.828 7.564-17.888 17.188-18.679a18.966 18.966 0 00-1.554-.064c-10.352 0-18.743 8.391-18.743 18.743 0 10.35 8.391 18.742 18.743 18.742.523 0 1.041-.022 1.554-.064-9.624-.79-17.188-8.85-17.188-18.678z" fill="#DCBF7E"/><path d="M37.124 38.089c5.867-5.866 5.867-15.377 0-21.244-5.866-5.866-15.377-5.866-21.243 0-5.866 5.867-5.866 15.378 0 21.244s15.377 5.866 21.243 0z" fill="#F4FBFF"/><path d="M15.714 27.467c0-7.566 5.623-13.842 12.909-14.873a15.077 15.077 0 00-2.116-.15c-8.284 0-15.023 6.74-15.023 15.023 0 8.284 6.74 15.024 15.023 15.024.718 0 1.424-.052 2.116-.15-7.286-1.031-12.909-7.308-12.909-14.874z" fill="#FFF9EB"/><path d="M30.446 0H22.57a.835.835 0 00-.835.835v2.173c0 .461.374.835.835.835h7.876a.835.835 0 00.835-.835V.835A.835.835 0 0030.446 0z" fill="#AF703F"/><path d="M25.299 3.008V.835c0-.461.374-.835.835-.835H22.57a.835.835 0 00-.835.835v2.173c0 .461.374.835.835.835h3.564a.835.835 0 01-.835-.835zm1.209 9.436v11.914l.213.288 2.209 1.72h8.019l1.232.767.287.334h3.064c0-8.284-6.74-15.023-15.024-15.023z" fill="#D1884F"/><path d="M29.505 12.744c-.969-.197-1.97-.3-2.997-.3v11.914l.213.288 2.209 1.72h.575V12.744z" fill="#C07942"/><path d="M23.73 26.073h-2.51a1.395 1.395 0 000 2.789h2.51l.139-.296V26.32l-.14-.246zm13.343 0h-7.787l-.24.184v2.154l.24.45h7.787a1.395 1.395 0 000-2.788z" fill="#FFAA5B"/><path d="M21.22 27.467a1.39 1.39 0 01-1.207-.697 1.395 1.395 0 001.207 2.092h2.51l.139-.296v-1.394l-.14.295h-2.51zm15.853 0h-7.787l-.24-.45v1.394l.24.45h7.787a1.395 1.395 0 001.207-2.091c-.241.416-.69.697-1.207.697z" fill="#FF9838"/><path d="M26.507 11.747c-8.669 0-15.721 7.052-15.721 15.72 0 8.669 7.052 15.721 15.72 15.721 8.67 0 15.722-7.052 15.722-15.72 0-8.669-7.053-15.721-15.721-15.721zm7.756 27.76l-.319-.552a.697.697 0 10-1.207.698l.32.553a14.225 14.225 0 01-5.853 1.57v-.64a.697.697 0 00-1.395 0v.64a14.225 14.225 0 01-5.852-1.57l.32-.553a.697.697 0 00-1.208-.698l-.319.552a14.442 14.442 0 01-4.283-4.283l.552-.319a.697.697 0 00-.697-1.208l-.554.32a14.226 14.226 0 01-1.57-5.852h.641a.697.697 0 000-1.395h-.641c.1-2.1.656-4.083 1.57-5.852l.554.32a.697.697 0 10.697-1.208l-.552-.319a14.442 14.442 0 014.283-4.283l.32.552a.697.697 0 101.207-.698l-.32-.553a14.225 14.225 0 015.852-1.57v.641a.697.697 0 001.395 0v-.641c2.1.1 4.083.656 5.852 1.57l-.32.553a.697.697 0 101.208.698l.319-.552a14.443 14.443 0 014.283 4.283l-.551.319a.697.697 0 10.697 1.208l.554-.32a14.224 14.224 0 011.57 5.852h-.642a.697.697 0 000 1.395h.642a14.226 14.226 0 01-1.57 5.852l-.554-.32a.697.697 0 10-.697 1.208l.551.319a14.443 14.443 0 01-4.283 4.283z" fill="#A67651"/><path d="M29.391 28.664a3.11 3.11 0 10-5.745-2.381 3.11 3.11 0 005.745 2.381z" fill="#FFBA7E"/><path d="M25.584 27.468c0-1.33.84-2.468 2.016-2.91a3.112 3.112 0 00-4.201 2.91 3.112 3.112 0 004.201 2.91 3.114 3.114 0 01-2.016-2.91z" fill="#FFAA5B"/></svg>