<svg width="48" height="48" fill="none" xmlns="http://www.w3.org/2000/svg"><g opacity=".2" filter="url(#filter0_f)"><path d="M10.465 29.768a8.186 8.186 0 018.186-8.187h11.163a8.186 8.186 0 010 16.373H18.65a8.186 8.186 0 01-8.186-8.186z" fill="#000"/><path d="M10.465 29.768a8.186 8.186 0 018.186-8.187h11.163a8.186 8.186 0 010 16.373H18.65a8.186 8.186 0 01-8.186-8.186z" fill="url(#paint0_linear)" fill-opacity=".3" style="mix-blend-mode:soft-light"/></g><circle cx="23.86" cy="17.86" r="17.86" fill="#4281E8"/><path fill-rule="evenodd" clip-rule="evenodd" d="M23.802 23.765s.39-.041.59-.249c.182-.19.176-.548.176-.548s-.025-1.673.779-1.92c.791-.243 1.808 1.618 2.887 2.334.814.54 1.433.422 1.433.422l2.883-.039s1.507-.09.793-1.236c-.06-.094-.418-.848-2.143-2.398-1.808-1.622-1.566-1.36.61-4.166 1.327-1.708 1.857-2.752 1.69-3.198-.157-.426-1.132-.313-1.132-.313l-3.245.02s-.24-.032-.419.07c-.174.102-.287.338-.287.338s-.513 1.322-1.198 2.446c-1.445 2.373-2.022 2.498-2.259 2.351-.55-.344-.412-1.38-.412-2.116 0-2.3.36-3.258-.702-3.506-.353-.083-.613-.137-1.515-.146-1.158-.011-2.137.004-2.693.266-.37.175-.654.565-.48.587.214.028.7.127.957.466.333.438.321 1.42.321 1.42s.191 2.707-.446 3.043c-.437.23-1.037-.24-2.326-2.393a19.721 19.721 0 01-1.158-2.322s-.096-.227-.268-.35a1.35 1.35 0 00-.498-.194l-3.083.02s-.463.012-.633.207c-.151.173-.012.53-.012.53s2.414 5.463 5.148 8.216c2.507 2.524 5.353 2.358 5.353 2.358h1.29z" fill="#fff"/><defs><linearGradient id="paint0_linear" x1="46.684" y1="42.236" x2="22.39" y2="3.675" gradientUnits="userSpaceOnUse"><stop/><stop offset="1" stop-color="#fff"/></linearGradient><filter id="filter0_f" x=".465" y="11.582" width="47.535" height="36.372" filterUnits="userSpaceOnUse" color-interpolation-filters="sRGB"><feFlood flood-opacity="0" result="BackgroundImageFix"/><feBlend in="SourceGraphic" in2="BackgroundImageFix" result="shape"/><feGaussianBlur stdDeviation="5" result="effect1_foregroundBlur"/></filter></defs></svg>