<svg width="48" height="48" fill="none" xmlns="http://www.w3.org/2000/svg"><g opacity=".2" filter="url(#filter0_f)"><path d="M10.186 29.768a8.186 8.186 0 018.186-8.187h11.163a8.186 8.186 0 010 16.373H18.372a8.186 8.186 0 01-8.186-8.186z" fill="#000"/><path d="M10.186 29.768a8.186 8.186 0 018.186-8.187h11.163a8.186 8.186 0 010 16.373H18.372a8.186 8.186 0 01-8.186-8.186z" fill="url(#paint0_linear)" fill-opacity=".3" style="mix-blend-mode:soft-light"/></g><circle cx="23.581" cy="17.86" r="17.86" fill="#5BA3D7"/><path fill-rule="evenodd" clip-rule="evenodd" d="M29.927 13.282a3.356 3.356 0 001.409-1.87 6.217 6.217 0 01-2.037.82 3.121 3.121 0 00-2.34-1.068c-1.77 0-3.205 1.514-3.205 3.381 0 .265.027.524.082.77-2.664-.14-5.026-1.486-6.608-3.533a3.515 3.515 0 00-.434 1.701c0 1.173.566 2.208 1.426 2.815a3.092 3.092 0 01-1.453-.422v.041c0 1.639 1.105 3.006 2.573 3.316-.27.079-.552.119-.846.119-.206 0-.408-.02-.602-.06.407 1.342 1.591 2.321 2.995 2.348a6.224 6.224 0 01-4.747 1.4 8.742 8.742 0 004.915 1.52c5.898 0 9.121-5.153 9.121-9.622 0-.147-.002-.293-.008-.437a6.702 6.702 0 001.6-1.751 6.142 6.142 0 01-1.841.532z" fill="#fff"/><defs><linearGradient id="paint0_linear" x1="46.405" y1="42.236" x2="22.111" y2="3.675" gradientUnits="userSpaceOnUse"><stop/><stop offset="1" stop-color="#fff"/></linearGradient><filter id="filter0_f" x=".186" y="11.582" width="47.535" height="36.372" filterUnits="userSpaceOnUse" color-interpolation-filters="sRGB"><feFlood flood-opacity="0" result="BackgroundImageFix"/><feBlend in="SourceGraphic" in2="BackgroundImageFix" result="shape"/><feGaussianBlur stdDeviation="5" result="effect1_foregroundBlur"/></filter></defs></svg>