<svg width="49" height="48" fill="none" xmlns="http://www.w3.org/2000/svg"><g opacity=".2" filter="url(#filter0_f)"><path d="M10.628 29.768a8.186 8.186 0 018.186-8.187h11.163a8.186 8.186 0 010 16.373H18.814a8.186 8.186 0 01-8.186-8.186z" fill="#000"/><path d="M10.628 29.768a8.186 8.186 0 018.186-8.187h11.163a8.186 8.186 0 010 16.373H18.814a8.186 8.186 0 01-8.186-8.186z" fill="url(#paint0_linear)" fill-opacity=".3" style="mix-blend-mode:soft-light"/></g><circle cx="24.023" cy="17.86" r="17.86" fill="#3572E5"/><path fill-rule="evenodd" clip-rule="evenodd" d="M25.746 26.047h-3.63v-8.56h-1.814v-2.949h1.814v-1.77c0-2.406 1.024-3.838 3.934-3.838h2.422v2.95h-1.514c-1.133 0-1.208.413-1.208 1.182l-.005 1.476h2.743l-.32 2.95h-2.423v8.559h.001z" fill="#fff"/><defs><linearGradient id="paint0_linear" x1="46.847" y1="42.236" x2="22.554" y2="3.675" gradientUnits="userSpaceOnUse"><stop/><stop offset="1" stop-color="#fff"/></linearGradient><filter id="filter0_f" x=".628" y="11.582" width="47.535" height="36.372" filterUnits="userSpaceOnUse" color-interpolation-filters="sRGB"><feFlood flood-opacity="0" result="BackgroundImageFix"/><feBlend in="SourceGraphic" in2="BackgroundImageFix" result="shape"/><feGaussianBlur stdDeviation="5" result="effect1_foregroundBlur"/></filter></defs></svg>