<svg width="49" height="48" fill="none" xmlns="http://www.w3.org/2000/svg"><g opacity=".2" filter="url(#filter0_f)"><path d="M10.907 29.768a8.186 8.186 0 018.186-8.187h11.163a8.186 8.186 0 010 16.373H19.093a8.186 8.186 0 01-8.186-8.186z" fill="#000"/><path d="M10.907 29.768a8.186 8.186 0 018.186-8.187h11.163a8.186 8.186 0 010 16.373H19.093a8.186 8.186 0 01-8.186-8.186z" fill="url(#paint0_linear)" fill-opacity=".3" style="mix-blend-mode:soft-light"/></g><circle cx="24.302" cy="17.86" r="17.86" fill="#E43B1C"/><path fill-rule="evenodd" clip-rule="evenodd" d="M33.764 21.27v-6.82s0-3.287-3.298-3.287H17.925s-3.297 0-3.297 3.287v6.82s0 3.288 3.297 3.288h12.541s3.298 0 3.298-3.287zm-5.853-3.4l-6.265 3.668V14.2l6.265 3.669z" fill="#fff"/><defs><linearGradient id="paint0_linear" x1="47.126" y1="42.236" x2="22.832" y2="3.675" gradientUnits="userSpaceOnUse"><stop/><stop offset="1" stop-color="#fff"/></linearGradient><filter id="filter0_f" x=".907" y="11.582" width="47.535" height="36.372" filterUnits="userSpaceOnUse" color-interpolation-filters="sRGB"><feFlood flood-opacity="0" result="BackgroundImageFix"/><feBlend in="SourceGraphic" in2="BackgroundImageFix" result="shape"/><feGaussianBlur stdDeviation="5" result="effect1_foregroundBlur"/></filter></defs></svg>