<svg width="38" height="39" fill="none" xmlns="http://www.w3.org/2000/svg"><rect y=".23" width="38" height="38" rx="19" fill="#B9E480"/><path d="M28.927 22.21a2.47 2.47 0 00-4.511-1.394 2.468 2.468 0 00-4.08 0 2.467 2.467 0 00-4.08 0 2.468 2.468 0 00-4.079 0 2.47 2.47 0 00-4.51 1.393l3.116 9.555a24.026 24.026 0 0015.027 0l3.117-9.555z" fill="#D84774"/><path d="M27.136 27.697l.497-1.524A44.44 44.44 0 019.217 19.92a2.468 2.468 0 00-1.227 1.09 46.013 46.013 0 0019.146 6.688zm1.34-4.109l.45-1.379c0-.052-.012-.1-.015-.151a44.433 44.433 0 01-8.171-1.698 2.486 2.486 0 00-.404.456 2.46 2.46 0 00-3.831-.302 46.005 46.005 0 0011.971 3.074zM17.395 32.95a44.451 44.451 0 01-7.096-2.67l.484 1.484a24.673 24.673 0 006.612 1.187zm8.308-1.154c.035-.011.07-.02.106-.032l.484-1.482A44.442 44.442 0 018.377 24.39l.718 2.2a46.01 46.01 0 0016.608 5.207zM15.44 20.066a2.454 2.454 0 00-.482-.21c.16.072.321.14.482.21z" fill="#F24C88"/><path d="M8.196 14.996a4.5 4.5 0 003.366 8.238 12.537 12.537 0 0013.037-.501c1.348 1.007 3.12 1.106 4.37.286 1.596-1.047 2.135-3.459.931-5.372-1.64-4.663-5.857-7.911-10.673-8.238a12.246 12.246 0 00-11.031 5.587z" fill="#F79663"/><path d="M16.998 11.138c-.37.422-.196 1.248.36 1.5a1.012 1.012 0 001.319-.6.926.926 0 00-.18-.78c-.35-.426-1.133-.536-1.499-.12zm5.089 7.329c.216.653 1.16 1.082 1.721.746.523-.314.486-1.16.317-1.646-.04-.116-.265-.764-.719-.839-.63-.104-1.593.909-1.319 1.739zm-10.237-.278c-.099.866.483 1.872 1.019 1.858.564-.014 1.197-1.16.899-2.038-.172-.506-.702-1.067-1.199-.959-.48.104-.678.777-.72 1.139zm5.726 4.277c.174.44 1.119.7 1.739.3.852-.55.577-2.012.12-2.218-.584-.264-2.134 1.218-1.859 1.918z" fill="#FFE5C2"/><path d="M24.552 13.297c-.257.194-.753.677-.66 1.079.15.643 1.799 1.028 2.218.48.373-.489-.18-1.779-.84-1.86a1.06 1.06 0 00-.718.3zm-6.255 1.82a1.137 1.137 0 00.774 1.277c.293.197 1.349-.326 1.439-1.14.091-.83-.868-1.576-1.2-1.438-.094.04-.9.068-1.013 1.301zm-6.634-1.281c.033.602 1.043 1.25 1.738.9.649-.329.82-1.424.36-1.86-.401-.378-1.184-.162-1.618.18-.12.095-.501.396-.48.78zm-3.417 4.496c-.506.16-.843 1.313-.3 1.858.368.369 1.103.426 1.44.06.379-.412.08-1.176-.3-1.558-.061-.061-.474-.476-.84-.36zm18.209 1.406c-.24.301-.432.82-.225 1.232.319.635 1.494.837 2.098.24.469-.464.535-1.351.06-1.799-.53-.5-1.493-.224-1.933.327zm-10.698-1.75c-.228.237-.454.675-.3 1.019.237.528 1.32.723 1.799.18.33-.375.365-1.091-.06-1.439-.44-.36-1.107-.105-1.439.24z" fill="#FECA7A"/><path d="M28.969 20.453c-1.25.82-3.022.72-4.37-.287a12.536 12.536 0 01-13.037.501 4.557 4.557 0 01-5.157-2.507 4.351 4.351 0 01-.203-.551 4.46 4.46 0 00.203 3.118 4.558 4.558 0 005.157 2.507 12.536 12.536 0 0013.037-.501c1.348 1.007 3.12 1.106 4.37.286 1.337-.878 1.928-2.713 1.377-4.411a3.508 3.508 0 01-1.377 1.845z" fill="#E6E7E8"/><path d="M12.025 11.794c.498.846 2.211 1.426 3.148 1.593 1.205.215 5.114.912 7.71-2.043A7.328 7.328 0 0024.166 4c-.286 2.564-2.644 3.331-3.644 3.477-2.011.293-3.49-.992-5.278-.854-3.582.276-4.263 3.393-3.219 5.171z" fill="#8F6C56"/><path d="M22.883 9.524c-2.596 2.954-6.504 2.258-7.71 2.043-.936-.167-2.65-.747-3.148-1.593a3.185 3.185 0 01-.32-.777 3.442 3.442 0 00.32 2.597c.498.846 2.212 1.426 3.148 1.593 1.206.215 5.114.912 7.71-2.043a7.203 7.203 0 001.689-5.635 7.065 7.065 0 01-1.689 3.815z" fill="#E6E7E8"/><path fill-rule="evenodd" clip-rule="evenodd" d="M9.589 10.572a1.49 1.49 0 01.548-2.227 1.499 1.499 0 011.986.703l.795 1.665c.192-.092.369-.215.56-.307a3.43 3.43 0 01.56-.228l-.794-1.664a1.499 1.499 0 01.703-1.987c.832-.397 1.84.066 2.108.96l.58 2.12c1.508-.051 2.927.451 3.492 1.636l.351.736c.474.992.23 2.13-.438 3.118-.653 1.019-1.717 1.92-3.094 2.576-1.376.657-2.746.917-3.95.784-1.155-.117-2.193-.643-2.666-1.636l-.351-.736c-.566-1.185-.095-2.588.894-3.728l-1.284-1.785zm6.688-.48l-.684-2.503c-.179-.622-.854-.968-1.463-.677a1.03 1.03 0 00-.485 1.371l1.008 2.113a2.024 2.024 0 00-.431.166c-.192.092-.368.136-.56.228-.192.092-.384.183-.56.307-.129.061-.274.17-.402.23l-.993-2.08a1.03 1.03 0 00-1.371-.486 1.025 1.025 0 00-.362 1.549l1.516 2.106c-1.1 1.154-1.569 2.478-1.08 3.502l.351.737c.749 1.568 3.44 1.856 6.002.634 2.561-1.222 4.03-3.495 3.282-5.064l-.35-.736c-.473-1.072-1.797-1.54-3.418-1.396z" fill="#277051"/><path d="M20.062 12.178c.749 1.568-.721 3.842-3.282 5.064-2.562 1.222-5.254.934-6.002-.635l-.351-.736 9.316-4.445.351.736-.032.016z" fill="#A4F5D3"/><path fill-rule="evenodd" clip-rule="evenodd" d="M9.974 10.31a1.025 1.025 0 01.362-1.549 1.03 1.03 0 011.371.486l1.008 2.113c.305-.185.61-.37.962-.538.32-.152.656-.273.991-.394L13.66 8.315a1.03 1.03 0 01.486-1.371c.576-.275 1.284.055 1.463.677l.683 2.504c1.59-.13 2.945.324 3.434 1.348.748 1.569-.721 3.842-3.282 5.064-2.562 1.222-5.253.935-6.002-.634-.489-1.024-.02-2.348 1.08-3.502L9.974 10.31z" fill="#44C38E"/><path d="M13.665 14.09c.198.417.142.876-.146 1.013-.288.138-.68-.108-.879-.524-.198-.416-.142-.875.146-1.013.288-.137.68.108.879.524zm3.553-1.695c.199.416.143.875-.145 1.013-.289.137-.68-.108-.88-.524-.198-.417-.142-.876.146-1.013.289-.138.68.108.88.524z" fill="#277051"/></svg>